<svg xmlns="http://www.w3.org/2000/svg" width="24" height="24" viewBox="0 0 24 24"><path d="m23.297 3.75.123.082c.165.156.279.331.393.527l.06.102c.201.412.191.929.092 1.37-.246.713-.888 1.241-1.411 1.763l-.162.163-.442.442-.478.479-.935.935-.76.76-2.156 2.157-.117.117-.117.117-1.885 1.886-1.937 1.938-1.087 1.087-.925.925-.472.472-.432.432-.156.156c-.523.525-1.036.985-1.815 1.018-.885-.036-1.376-.504-1.966-1.098l-.207-.206-.557-.557-.585-.585-.981-.982-1.133-1.133-.975-.975-.581-.581-.546-.547-.2-.2c-.499-.494-.95-.951-.965-1.695.002-.594.111-1.037.534-1.478.443-.415.931-.579 1.529-.573.686.044 1.139.447 1.601.915l.162.162.437.439.458.459.865.869.986.99 2.024 2.036c.165-.071.271-.166.397-.292l.127-.127.139-.141.148-.149.408-.41.44-.441.762-.765 1.104-1.107 1.794-1.798.108-.109 1.63-1.635.108-.108 1.786-1.79 1.101-1.104.755-.757.435-.437q.199-.201.399-.4l.143-.144c.858-.869 1.879-1.197 2.935-.474"/></svg>